<svg xmlns="http://www.w3.org/2000/svg" version="1.1" xmlns:xlink="http://www.w3.org/1999/xlink" width="24" height="48"><svg width="24" height="48" viewBox="0 0 24 48" fill="none" xmlns="http://www.w3.org/2000/svg">
<path d="M11.4548 48C9.20983 48 7.49308 47.4013 6.70074 47.0592C5.33615 46.4605 4.14763 45.6908 3.17921 44.7072C1.63855 43.1677 0.626107 41.4571 0.273954 39.6611C0.141897 39.0196 0.0538588 38.3781 0.0538589 37.6939C0.0538589 36.9669 0.1419 36.1972 0.317976 35.4702C0.406014 35.1281 0.494052 34.8287 0.58209 34.5294C1.19836 32.6478 2.47491 30.98 4.10362 29.8681C5.46821 28.9701 7.09691 28.4569 8.81366 28.4142L8.85768 28.4142L8.81366 28.628L8.4615 30.98L8.41749 31.2366C7.80122 31.3221 7.27299 31.5359 6.74476 31.7925C6.52467 31.878 6.34859 32.0063 6.12849 32.1346C5.55625 32.5195 5.07204 32.9899 4.63184 33.5458C4.36773 33.8879 4.19165 34.2301 4.01558 34.5722C3.88352 34.8715 3.75146 35.2136 3.66343 35.5557C3.53137 36.0689 3.44333 36.6248 3.44333 37.1808C3.44333 37.3518 3.44333 37.5229 3.44333 37.6939C3.48735 38.4209 3.66342 39.1051 3.97156 39.7893C4.0596 39.9604 4.14763 40.1315 4.23567 40.3025C4.58782 40.9012 4.984 41.4571 5.46821 41.9275C5.82036 42.2696 6.21653 42.569 6.65672 42.8256C7.22897 43.1677 7.84524 43.467 8.54954 43.6809C8.81366 43.7664 9.03375 43.8092 9.29787 43.8947C10.0462 44.0657 10.8385 44.1513 11.5869 44.1085C11.7629 44.1085 11.939 44.1085 12.1591 44.0657C12.7754 44.023 13.3476 43.8947 13.9199 43.6809C14.5361 43.467 15.1084 43.2105 15.6366 42.8683C16.2089 42.4835 16.7371 42.0558 17.1773 41.5854C17.4414 41.2861 17.7055 40.9867 17.8816 40.7302C18.1457 40.3453 18.3658 39.9604 18.5859 39.5328C18.85 38.9768 19.0701 38.3781 19.2462 37.7367C19.2462 37.6939 19.2902 37.6512 19.2902 37.5656L19.2902 37.5229C19.4223 36.8814 19.5103 36.1972 19.5103 35.513C19.5103 35.4702 19.5103 35.4274 19.5103 35.3847C19.5103 34.7005 19.4223 33.9735 19.2462 33.2893C19.2462 33.2465 19.2022 33.161 19.2022 33.1182C19.0261 32.5195 18.762 31.878 18.4538 31.3221C18.1457 30.7662 17.7495 30.2103 17.3093 29.6971C16.8692 29.1839 16.3409 28.6708 15.7247 28.2431C15.3725 27.9865 15.0204 27.7727 14.6682 27.5589C14.4921 27.4734 14.272 27.3451 14.0519 27.2595L14.0959 27.003L14.7122 23.0259L14.7562 22.8121L14.8003 22.8121C17.4414 23.7957 19.2462 25.0358 20.9629 27.0885C22.8557 29.355 23.5601 31.707 23.7801 32.9044C23.9122 33.6741 24.0002 34.4866 24.0002 35.2991L23.7801 35.2991L24.0002 35.2991C24.0002 36.9242 23.6921 38.5492 23.0758 40.0459C22.0634 42.569 20.4347 44.194 19.5983 44.921C18.5419 45.819 17.3534 46.546 16.0768 47.0592C14.9763 47.4868 13.8318 47.7434 12.6873 47.8717C12.2031 47.9572 11.807 48 11.4548 48Z" fill="#E94D1D"></path>
<path d="M9.17935 24.7067C9.17935 24.7541 9.16007 24.791 9.16007 24.791L9.13501 24.791C8.46983 24.5802 7.849 24.3272 7.27251 24.0321C6.56299 23.6948 5.89781 23.2732 5.32132 22.8094C4.83353 22.4721 4.39007 22.0505 3.94662 21.6289C3.45883 21.1229 2.97103 20.5748 2.48323 19.9003C2.26151 19.6051 2.03978 19.2678 1.8624 18.9727C1.64068 18.5932 1.37461 18.1716 1.19722 17.75C0.975499 17.2441 0.753771 16.7803 0.620735 16.3165C0.443355 15.8106 0.310319 15.3046 0.221629 14.8409C0.0885935 14.082 -9.62707e-05 13.3231 -9.62357e-05 12.522L-9.62339e-05 12.4798C-9.62025e-05 11.7631 0.0442494 11.0463 0.177285 10.3296C0.265975 9.95013 0.354664 9.52852 0.443354 9.14907C0.57639 8.68529 0.709427 8.26367 0.886807 7.84206C1.15288 7.16747 1.50764 6.53505 1.8624 5.90262C2.21716 5.35452 2.61627 4.80643 3.05972 4.30049C3.50317 3.79455 3.94662 3.37293 4.39007 2.95132C4.96656 2.44538 5.63174 2.02376 6.29692 1.64431C6.91775 1.30702 7.58293 0.969731 8.29245 0.716762C8.95763 0.463793 9.6228 0.295139 10.2436 0.168654C10.9532 0.0421698 11.707 1.09091e-05 12.4609 1.0942e-05C12.5496 1.09459e-05 12.5939 1.09479e-05 12.6826 1.09517e-05C13.0817 1.09692e-05 13.4365 0.0421777 13.8356 0.0843392C14.5895 0.168662 15.299 0.295147 16.0085 0.505955C16.7624 0.716762 17.5162 1.0119 18.1814 1.39135C18.4031 1.51783 18.6249 1.64432 18.8466 1.7708C19.024 1.85512 19.157 1.9816 19.3344 2.10809C19.6448 2.3189 19.9552 2.57187 20.2213 2.78267C20.7091 3.16213 21.1525 3.62591 21.596 4.13185C21.8621 4.42698 22.1281 4.76427 22.3499 5.10156C22.6159 5.48101 22.8377 5.90262 23.0594 6.32424C23.3698 6.95666 23.5915 7.63125 23.7246 8.30584C23.7246 8.348 23.7246 8.39015 23.7689 8.43232L23.7689 8.47448C23.9019 9.06474 23.9463 9.65501 23.9463 10.2031L23.9463 10.2874C23.9463 10.7934 23.9019 11.2993 23.8133 11.8052C23.6802 12.522 23.4585 13.2387 23.1924 13.9555C23.015 14.4193 22.749 14.883 22.5272 15.2625C22.1281 15.8949 21.6403 16.4852 21.1082 16.9911C20.7978 17.2862 20.4874 17.5392 20.177 17.75C19.6892 18.0873 19.157 18.3824 18.6249 18.6354C18.2258 18.8041 17.871 18.9305 17.4719 19.057C16.7624 19.2678 16.0085 19.3522 15.1659 19.3943L15.1216 19.3943L15.1659 19.1835L15.5207 16.8225L15.5651 16.5695C15.7868 16.5273 15.9642 16.4852 16.1859 16.443C17.6936 16.0214 18.5805 15.136 18.8909 14.8409C19.29 14.4614 19.9996 13.576 20.3543 12.3112C20.4874 11.8052 20.5761 11.2571 20.5761 10.709C20.5761 9.31771 20.0883 7.96854 19.2014 6.83018C19.1127 6.7037 19.024 6.57721 18.9353 6.49288C17.871 5.2702 16.1859 4.34265 14.279 4.00536C12.9487 3.75239 11.5296 3.83671 10.2436 4.21616C8.02638 4.89075 6.82906 6.28208 6.42995 6.74585C5.0996 8.22151 4.34573 10.2874 4.34573 12.3533L4.34573 12.3955C4.34573 13.1966 4.47877 13.9976 4.65615 14.7565C5.18829 16.6117 6.42995 18.3403 8.02638 19.5208C8.55852 19.9003 9.13501 20.2375 9.84453 20.5327L9.80018 20.7856L9.17935 24.7067Z" fill="#E94D1D"></path>
<path d="M10.3972 18.1346L10.3081 18.0923C10.1299 18.0075 9.99628 17.8804 9.81811 17.7533C9.1945 17.2871 8.61544 16.7786 8.17001 16.1853L8.12547 16.1429C7.68004 15.5496 7.32369 14.8716 7.10098 14.1512C6.96735 13.7698 6.87826 13.346 6.83372 12.9222C6.83372 12.7951 6.78918 12.668 6.78918 12.5408C6.78918 12.4137 6.78918 12.2866 6.78918 12.1171C6.78918 11.6509 6.83372 11.1424 6.96735 10.6762C7.10098 10.2101 7.27915 9.70155 7.50187 9.27778C7.72458 8.81162 8.03638 8.38785 8.34819 8.00645C8.74907 7.5403 9.1945 7.11653 9.63994 6.77751C10.2635 6.35374 10.9317 6.01472 11.6444 5.84521C11.8671 5.80283 12.0898 5.71808 12.3125 5.71808L12.4016 5.71808L12.3571 5.97235L12.0898 7.70982L12.0453 7.96407C11.8671 8.04883 11.6444 8.13359 11.4662 8.21834C10.5308 8.72687 10.0408 9.40491 9.81811 9.78631C9.37268 10.5491 9.28359 11.3119 9.28359 11.778C9.28359 12.0747 9.32813 12.2866 9.32813 12.4137C9.50631 13.5579 10.0854 14.2783 10.3526 14.6173C10.5308 14.8292 10.709 14.9987 10.8871 15.2106L10.8426 15.4649L10.4417 17.9228L10.3972 18.1346Z" fill="#E94D1D"></path>
<path d="M11.6532 41.55L11.6981 41.2948L11.9675 39.5089L12.0124 39.2537C12.192 39.2112 12.3267 39.1262 12.5063 39.0411C13.09 38.7435 13.5839 38.3182 13.9431 37.893C13.988 37.808 14.0329 37.7655 14.1227 37.6804C14.4819 37.1276 14.7064 36.4898 14.7962 35.8519C14.7962 35.7669 14.7962 35.6819 14.7962 35.5968C14.7962 35.5543 14.7962 35.5118 14.7962 35.4692C14.7962 34.8739 14.6615 34.3211 14.437 33.7683C14.1676 33.173 13.7635 32.6202 13.2247 32.11L13.1798 32.0674L13.2247 31.8123L13.6288 29.3885L13.6737 29.1334L13.7635 29.1759C14.3472 29.5161 14.886 29.9413 15.3349 30.4091C15.9635 31.0469 16.4574 31.8123 16.7717 32.5777C17.086 33.3856 17.2656 34.2361 17.2656 35.0865C17.2656 35.4267 17.2207 35.7244 17.1758 36.0646C16.8615 38.0631 15.5594 39.8916 13.7635 40.8696C13.1349 41.2098 12.4165 41.4649 11.6981 41.55L11.6532 41.55Z" fill="#E94D1D"></path>
</svg><style>@media (prefers-color-scheme: light) { :root { filter: none; } }
@media (prefers-color-scheme: dark) { :root { filter: none; } }
</style></svg>