<svg width="199" height="37" viewBox="0 0 199 37" fill="none" xmlns="http://www.w3.org/2000/svg">
<path d="M23.79 21.53C23.79 28.41 21.18 30.17 15.95 30.17C10.72 30.17 8.11 28.41 8.11 21.53V0.459991H0V22.65C0 31.93 5.33 36.79 15.95 36.79C26.57 36.79 31.85 31.88 31.85 22.65V0.459991H23.8V21.53H23.79Z" fill="#008539"/>
<path d="M100.21 17.63C104.26 16.78 107.52 14.43 107.52 9.2C107.52 4.4 104.48 0.449997 96.9001 0.449997H77.1101V35.92H96.5301C104.1 35.92 108 32.24 108 26.26C108 20.61 104.64 18.31 100.21 17.62V17.63ZM85.2201 6.59H94.5001C97.8601 6.59 99.0301 8.08 99.0301 10.8C99.0301 13.36 97.7501 15.07 94.2301 15.07H85.2201V6.59ZM94.7101 29.74H85.2201V20.51H94.2301C98.1201 20.51 99.5601 22.32 99.5601 25.15C99.5601 27.76 98.3301 29.74 94.7101 29.74Z" fill="#008539"/>
<path d="M48.4401 0.449997L34.3101 35.93H42.2801C42.3901 35.62 42.5501 35.19 42.6701 34.91C43.3201 33.35 44.3001 32.04 45.5001 30.92C47.4701 29.07 49.8701 28.28 52.3601 28.08C54.0401 27.94 56.0201 27.91 57.7101 27.9H62.9201L66.0101 35.93H73.9901L59.8701 0.449997H48.4401ZM57.0801 21.68C56.8701 21.68 56.6601 21.68 56.4801 21.68C52.2801 21.72 48.8201 22.71 45.4801 27.58L54.1501 6.05L60.4401 21.68C60.3401 21.68 57.0701 21.68 57.0701 21.68H57.0801Z" fill="#008539"/>
<path d="M122.29 9.09999C124.81 9.09999 126.07 7.92999 126.07 5.73999V0.459991H124.15V5.46999C124.15 7.10999 123.53 7.52999 122.28 7.52999C121.03 7.52999 120.41 7.10999 120.41 5.46999V0.459991H118.48V5.73999C118.48 7.94999 119.75 9.09999 122.27 9.09999H122.29Z" fill="#008539"/>
<path d="M129.36 6.01C129.36 4.5 129.92 3.87 130.92 3.87C131.69 3.87 132.13 4.28 132.13 5.29V8.89H134.01V4.99C134.01 3.33 133.31 2.34 131.65 2.34C130.5 2.34 129.77 2.92 129.37 3.79V2.55H127.49V8.89H129.37V6.01H129.36Z" fill="#008539"/>
<path d="M137.36 0.459991H135.32V1.71999H137.36V0.459991Z" fill="#008539"/>
<path d="M137.29 2.55H135.41V8.89H137.29V2.55Z" fill="#008539"/>
<path d="M143.01 8.9L145.22 2.55H143.43L141.76 7.44L140.08 2.55H138.16L140.37 8.9H143.01Z" fill="#008539"/>
<path d="M148.9 9.1C151.18 9.1 152 8 152.17 6.98H150.37C150.19 7.45 149.76 7.8 148.94 7.8C148.04 7.8 147.44 7.41 147.33 6.2H152.16C152.19 6.06 152.19 5.88 152.19 5.69C152.19 3.9 151.3 2.34 148.9 2.34C146.5 2.34 145.49 3.86 145.49 5.7C145.49 7.54 146.43 9.09 148.9 9.09V9.1ZM148.93 3.62C149.87 3.62 150.34 4.1 150.4 5.07H147.34C147.49 3.99 148.03 3.62 148.93 3.62Z" fill="#008539"/>
<path d="M155.17 6.4C155.17 4.97 155.6 4.28 156.86 4.28H157.48V2.45H157.06C155.99 2.45 155.42 3.01 155.12 3.91V2.55H153.29V8.89H155.17V6.39V6.4Z" fill="#008539"/>
<path d="M161.29 7.92C160.34 7.92 159.88 7.44 159.83 6.83H158.12C158.16 8.04 159.01 9.1 161.27 9.1C163.53 9.1 164.24 8.24 164.24 6.99C164.24 5.86 163.67 5.21 162.16 5.02L160.83 4.87C160.2 4.79 160.03 4.54 160.03 4.22C160.03 3.81 160.36 3.51 161.17 3.51C161.98 3.51 162.35 3.88 162.41 4.4H164.15C164.04 3 162.88 2.33 161.17 2.33C159.46 2.33 158.29 2.99 158.29 4.4C158.29 5.47 158.94 6.1 160.13 6.25L161.55 6.43C162.26 6.52 162.44 6.8 162.44 7.18C162.44 7.62 162.15 7.92 161.3 7.92H161.29Z" fill="#008539"/>
<path d="M167.36 0.459991H165.32V1.71999H167.36V0.459991Z" fill="#008539"/>
<path d="M167.29 2.55H165.41V8.89H167.29V2.55Z" fill="#008539"/>
<path d="M169.38 6.61C169.38 8.12 169.91 8.89 171.72 8.89H172.91V7.39H171.26V3.96H173.09V2.54H171.26V1.03H170.31L169.54 2.53L168.23 3.06V3.96H169.38V6.6V6.61Z" fill="#008539"/>
<path d="M178.42 7.54C178.42 8.06 178.46 8.48 178.52 8.9H180.16C180.1 8.35 180.06 7.85 180.06 7.25V4.51C180.06 3.16 179.12 2.34 177.19 2.34C175.26 2.34 174.14 3.27 174.09 4.62H175.93C175.96 3.97 176.36 3.63 177.22 3.63C178.08 3.63 178.32 3.92 178.32 4.37C178.32 4.74 178.12 4.9 177.53 5L176.03 5.25C174.39 5.53 173.95 6.19 173.95 7.2C173.95 8.34 174.78 9.05 176.06 9.05C177.34 9.05 178.12 8.4 178.41 7.53L178.42 7.54ZM175.82 7.02C175.82 6.54 176.09 6.3 176.76 6.13L177.29 6C177.68 5.91 178 5.82 178.33 5.59V5.87C178.33 7.05 177.7 7.77 176.71 7.77C176.2 7.77 175.82 7.52 175.82 7.01V7.02Z" fill="#008539"/>
<path d="M185.51 7.39999H183.86V3.96999H185.69V2.54999H183.86V1.03999H182.91L182.14 2.53999L180.83 3.06999V3.96999H181.99V6.60999C181.99 8.11999 182.52 8.88999 184.33 8.88999H185.52V7.38999L185.51 7.39999Z" fill="#008539"/>
<path d="M120.74 20.68H124.52L125.13 22.41H127.07L124.1 13.97H121.16L118.19 22.41H120.13L120.74 20.68ZM122.63 15.3L124 19.2H121.26L122.63 15.3Z" fill="#008539"/>
<path d="M132.46 18.95C132.46 20.38 131.88 21.08 130.94 21.08C130.14 21.08 129.7 20.67 129.7 19.67V16.07H127.82V19.95C127.82 21.61 128.56 22.62 130.22 22.62C131.36 22.62 132.07 22.05 132.47 21.2V22.42H134.35V16.08H132.47V18.96L132.46 18.95Z" fill="#008539"/>
<path d="M139.92 22.41V20.91H138.27V17.48H140.1V16.06H138.27V14.55H137.32L136.55 16.05L135.24 16.58V17.48H136.39V20.12C136.39 21.63 136.92 22.4 138.73 22.4H139.92V22.41Z" fill="#008539"/>
<path d="M153.59 22.41H155.47V18.51C155.47 16.85 154.77 15.86 153.11 15.86C151.96 15.86 151.23 16.44 150.83 17.31V16.07H148.95V22.41H150.83V19.53C150.83 18.02 151.39 17.39 152.39 17.39C153.16 17.39 153.6 17.8 153.6 18.81V22.41H153.59Z" fill="#008539"/>
<path d="M140.81 19.22C140.81 21 141.8 22.61 144.32 22.61C146.84 22.61 147.84 20.99 147.84 19.22C147.84 17.45 146.86 15.86 144.32 15.86C141.78 15.86 140.81 17.47 140.81 19.22ZM144.32 17.33C145.47 17.33 145.96 17.83 145.96 19.23C145.96 20.63 145.48 21.13 144.32 21.13C143.16 21.13 142.7 20.64 142.7 19.23C142.7 17.82 143.18 17.33 144.32 17.33Z" fill="#008539"/>
<path d="M146.13 14.86L142.92 13.76L142.55 14.95L145.97 15.35L146.13 14.86Z" fill="#008539"/>
<path d="M160.08 15.86C157.55 15.86 156.57 17.47 156.57 19.22C156.57 20.97 157.56 22.61 160.08 22.61C162.6 22.61 163.59 20.99 163.59 19.22C163.59 17.45 162.61 15.86 160.08 15.86ZM160.08 21.14C158.94 21.14 158.46 20.65 158.46 19.24C158.46 17.83 158.94 17.34 160.08 17.34C161.22 17.34 161.72 17.84 161.72 19.24C161.72 20.64 161.24 21.14 160.08 21.14Z" fill="#008539"/>
<path d="M175.38 22.41V18.51C175.38 16.85 174.66 15.86 173.04 15.86C171.85 15.86 171.15 16.46 170.77 17.33C170.49 16.39 169.81 15.86 168.68 15.86C167.55 15.86 166.89 16.41 166.51 17.22V16.07H164.63V22.41H166.51V19.53C166.51 18.02 166.99 17.39 167.94 17.39C168.7 17.39 169.08 17.83 169.08 18.79V22.42H170.92V19.54C170.92 18.03 171.4 17.4 172.35 17.4C173.11 17.4 173.49 17.84 173.49 18.8V22.43H175.37L175.38 22.41Z" fill="#008539"/>
<path d="M180.03 18.51L178.53 18.76C176.89 19.04 176.45 19.7 176.45 20.71C176.45 21.85 177.27 22.56 178.56 22.56C179.85 22.56 180.62 21.91 180.91 21.04C180.91 21.56 180.95 21.98 181.01 22.4H182.65C182.59 21.85 182.55 21.35 182.55 20.75V18.01C182.55 16.66 181.61 15.84 179.68 15.84C177.75 15.84 176.63 16.77 176.58 18.12H178.42C178.45 17.47 178.85 17.13 179.71 17.13C180.57 17.13 180.81 17.42 180.81 17.87C180.81 18.24 180.61 18.4 180.02 18.5L180.03 18.51ZM180.82 19.39C180.82 20.57 180.19 21.29 179.2 21.29C178.69 21.29 178.31 21.04 178.31 20.53C178.31 20.02 178.58 19.81 179.25 19.64L179.78 19.51C180.17 19.42 180.49 19.33 180.82 19.1V19.38V19.39Z" fill="#008539"/>
<path d="M123.44 30.53C123 29.81 122.26 29.38 121.17 29.38C119.1 29.38 118.25 30.94 118.25 32.74C118.25 34.54 119.1 36.13 121.17 36.13C122.26 36.13 123 35.71 123.44 34.99V35.93H125.32V27.05H123.44V30.54V30.53ZM121.75 34.65C120.56 34.65 120.13 34.05 120.13 32.75C120.13 31.45 120.56 30.85 121.75 30.85C122.94 30.85 123.44 31.46 123.44 32.75C123.44 34.04 122.93 34.65 121.75 34.65Z" fill="#008539"/>
<path d="M133.09 32.73C133.09 30.94 132.2 29.38 129.8 29.38C127.4 29.38 126.39 30.9 126.39 32.74C126.39 34.58 127.33 36.13 129.8 36.13C132.08 36.13 132.9 35.03 133.07 34.01H131.27C131.09 34.48 130.66 34.83 129.84 34.83C128.94 34.83 128.34 34.44 128.23 33.23H133.06C133.09 33.09 133.09 32.91 133.09 32.72V32.73ZM128.24 32.1C128.39 31.02 128.93 30.65 129.83 30.65C130.73 30.65 131.24 31.13 131.3 32.1H128.24Z" fill="#008539"/>
<path d="M142.86 31.57C143.82 31.37 144.6 30.81 144.6 29.57C144.6 28.43 143.88 27.49 142.08 27.49H137.37V35.93H141.99C143.79 35.93 144.72 35.05 144.72 33.63C144.72 32.28 143.92 31.74 142.87 31.57H142.86ZM139.29 28.94H141.5C142.3 28.94 142.58 29.3 142.58 29.94C142.58 30.55 142.28 30.96 141.44 30.96H139.3V28.94H139.29ZM141.55 34.45H139.29V32.25H141.43C142.36 32.25 142.7 32.68 142.7 33.35C142.7 33.97 142.41 34.44 141.54 34.44L141.55 34.45Z" fill="#008539"/>
<path d="M151.93 31.53C151.93 30.18 150.99 29.36 149.06 29.36C147.13 29.36 146.01 30.29 145.96 31.64H147.8C147.83 30.99 148.23 30.65 149.09 30.65C149.95 30.65 150.19 30.94 150.19 31.39C150.19 31.76 149.99 31.92 149.4 32.02L147.9 32.27C146.26 32.55 145.82 33.21 145.82 34.22C145.82 35.36 146.64 36.07 147.93 36.07C149.22 36.07 149.99 35.42 150.28 34.55C150.28 35.07 150.32 35.49 150.38 35.91H152.02C151.96 35.36 151.92 34.86 151.92 34.26V31.52L151.93 31.53ZM150.2 32.9C150.2 34.08 149.57 34.8 148.58 34.8C148.07 34.8 147.69 34.55 147.69 34.04C147.69 33.53 147.96 33.32 148.63 33.15L149.16 33.02C149.55 32.93 149.87 32.84 150.2 32.61V32.89V32.9Z" fill="#008539"/>
<path d="M155.32 30.94V29.58H153.49V35.92H155.37V33.42C155.37 31.99 155.8 31.3 157.06 31.3H157.68V29.47H157.26C156.19 29.47 155.62 30.03 155.32 30.93V30.94Z" fill="#008539"/>
<path d="M161.64 34.65C160.62 34.65 160.04 34.18 160.04 32.75C160.04 31.32 160.65 30.85 161.66 30.85C162.67 30.85 163.06 31.37 163.12 32.16H164.95C164.9 30.6 163.82 29.38 161.63 29.38C159.17 29.38 158.15 30.98 158.15 32.76C158.15 34.54 159.19 36.14 161.67 36.14C163.9 36.14 164.96 34.81 164.99 33.32H163.16C163.08 34.08 162.64 34.67 161.64 34.67V34.65Z" fill="#008539"/>
<path d="M175.69 27.04H173.81V35.92H175.69V27.04Z" fill="#008539"/>
<path d="M172.64 32.73C172.64 30.94 171.75 29.38 169.35 29.38C166.95 29.38 165.94 30.9 165.94 32.74C165.94 34.58 166.88 36.13 169.35 36.13C171.63 36.13 172.45 35.03 172.62 34.01H170.82C170.64 34.48 170.21 34.83 169.39 34.83C168.49 34.83 167.89 34.44 167.78 33.23H172.61C172.64 33.09 172.64 32.91 172.64 32.72V32.73ZM167.79 32.1C167.94 31.02 168.48 30.65 169.38 30.65C170.28 30.65 170.79 31.13 170.85 32.1H167.79Z" fill="#008539"/>
<path d="M180.31 29.38C177.78 29.38 176.79 30.99 176.79 32.74C176.79 34.49 177.78 36.13 180.31 36.13C182.84 36.13 183.82 34.51 183.82 32.74C183.82 30.97 182.84 29.38 180.31 29.38ZM180.31 34.66C179.17 34.66 178.69 34.17 178.69 32.76C178.69 31.35 179.17 30.86 180.31 30.86C181.45 30.86 181.95 31.35 181.95 32.76C181.95 34.17 181.47 34.66 180.31 34.66Z" fill="#008539"/>
<path d="M189.09 29.38C187.94 29.38 187.21 29.96 186.81 30.83V29.59H184.93V35.93H186.81V33.05C186.81 31.54 187.37 30.91 188.37 30.91C189.14 30.91 189.58 31.32 189.58 32.33V35.93H191.46V32.03C191.46 30.37 190.76 29.38 189.1 29.38H189.09Z" fill="#008539"/>
<path d="M198.61 34.27V31.53C198.61 30.18 197.67 29.36 195.74 29.36C193.81 29.36 192.69 30.29 192.64 31.64H194.48C194.51 30.99 194.91 30.65 195.77 30.65C196.63 30.65 196.87 30.94 196.87 31.39C196.87 31.76 196.67 31.92 196.08 32.02L194.58 32.27C192.94 32.55 192.5 33.21 192.5 34.22C192.5 35.36 193.33 36.07 194.61 36.07C195.89 36.07 196.67 35.42 196.96 34.55C196.96 35.07 197 35.49 197.06 35.91H198.7C198.64 35.36 198.6 34.86 198.6 34.26L198.61 34.27ZM196.88 32.9C196.88 34.08 196.25 34.8 195.26 34.8C194.75 34.8 194.37 34.55 194.37 34.04C194.37 33.53 194.64 33.32 195.31 33.15L195.84 33.02C196.23 32.93 196.55 32.84 196.88 32.61V32.89V32.9Z" fill="#008539"/>
</svg>
